<?xml version="1.0" encoding="UTF-8"?>
<svg xmlns="http://www.w3.org/2000/svg" version="1.1" viewBox="0 0 800 800">
  <defs>
    <style>
      .cls-1 {
        fill: #fff;
      }

      .cls-2 {
        fill: #222;
      }

      .cls-3 {
        fill: #fcd04d;
      }
    </style>
  </defs>
  <!-- Generator: Adobe Illustrator 28.7.3, SVG Export Plug-In . SVG Version: 1.2.0 Build 164)  -->
  <g>
    <g id="Layer_6">
      <path class="cls-2" d="M336.63,535.87l112.5,174.21,171.12.07-142.83-199.93c13.75-7.96,33.39-21.38,51.97-42.76,50.81-58.48,50.83-127.19,50.66-138.82-1.11-74.03-41.65-122.54-52.63-134.87-8.33-9.36-61.39-67-148.68-69.74-9.43-.3-108.23-1.75-167.76,76.97-26.38,34.88-34.15,71.09-36.84,90.79v418.42h142.76v-176.32"/>
      <path class="cls-3" d="M304.39,321.39c1.25-5.57,5.91-22.96,22.37-36.84,4.13-3.49,18.24-14.53,39.47-15.79,4.09-.24,30.72-1.38,51.32,19.08,18.9,18.77,23.38,46.44,16.45,68.42-6.94,22.02-23.82,33.53-31.58,38.82-39.38,26.84-86.62,14.68-96.71,11.84l-1.32-85.53Z"/>
      <path class="cls-2" d="M375.67,326.4c-3.36-1.78-7.39,1.66-8.55,4.69-.8,2.08.23,4.24,2.3,4.99,1.54.56,3.4.23,4.9-.34,1.66-.63,3.47-1.57,4.39-3.17,1.17-2.05.84-4.8-.52-6.67-1.64-2.27-4.36-3.53-7.17-2.96-1.23.25-2.36.96-2.98,2.07s-.59,2.34-.39,3.54c.14.83.42,1.62.73,2.39.21.51.43,1.02.64,1.53.04.08.32.73.13.29-.17-.37-.03-.1-.01-.02.03.08.05.15.07.23.05.2.04.1-.03-.3-.03.09-.05.7.03.21s-.04.12-.07.22c-.08.29-.2.58-.26.88-.27,1.24-.01,2.47.94,3.36,1.47,1.37,3.55,1.21,5.41,1.06,1.08-.08,2.09-.21,3.07-.72,1.1-.57,2-1.58,2.64-2.62,1.27-2.07,1.6-4.55,1.2-6.92s-1.81-4.36-3.75-5.7-4.28-1.72-6.51-1.34-4.1,1.84-5.24,3.72-1.52,4.22-.87,6.28,2.31,3.94,4.34,4.93,4.27,1.5,6.47,1.24c2.68-.31,5.26-1.73,5.97-4.52.33-1.32.19-2.76-.54-3.93-.69-1.11-2.26-1.64-3.42-.9s-1.64,2.23-.9,3.42c.04.07.08.15.12.21.15.21-.1-.22-.1-.23.15.41.02-.47.01-.04,0,.08,0,.16,0,.24.02.26.02-.24.04-.26-.04.04-.23.71-.07.33.14-.35-.1.13-.14.21-.11.23.11-.16.14-.17-.05.02-.13.15-.17.18-.02.02-.18.15-.18.17,0-.04.4-.25.14-.12-.12.06-.44.35-.59.32-.02,0,.45-.14.15-.08-.09.02-.19.06-.28.08-.05.01-.55.16-.57.12,0-.01.49-.04.18-.03-.1,0-.2.02-.29.02-.23.01-.46.02-.69.01-.19,0-.38-.01-.57-.03-.1,0-.65-.07-.26-.02s-.16-.04-.26-.05c-.2-.04-.39-.08-.59-.14-.33-.09-.66-.2-.98-.32-.44-.16.38.2-.03-.02-.18-.09-.35-.18-.53-.28-.15-.08-.29-.17-.43-.27-.05-.03-.15-.13-.21-.14,0,0,.38.32.18.14-.27-.24-.52-.48-.77-.75-.3-.34.23.37,0-.02-.09-.14-.18-.28-.25-.43-.04-.07-.07-.15-.11-.22-.13-.23.09.2.09.21.01-.14-.13-.39-.16-.53-.02-.1-.12-.63-.05-.21s0-.11,0-.22c0-.16.03-.32.02-.47-.01-.26-.02.25-.04.27.04-.04.05-.25.06-.31.07-.31.21-.61.28-.91,0,0-.22.46-.09.23.04-.07.07-.14.11-.21.09-.17.18-.33.29-.48.04-.06.12-.14.14-.2,0,0-.32.38-.14.19.11-.12.21-.24.32-.36s.24-.21.35-.33c.18-.2-.17.17-.19.14,0,0,.24-.17.26-.18.14-.09.28-.16.42-.24.39-.22-.44.13,0,0,.16-.05.31-.1.48-.15.11-.03.72-.13.32-.08s.14,0,.24,0c.17,0,.33,0,.5,0,.1,0,.65.06.25.01s.21.05.32.08c.16.04.32.09.48.14.08.03.16.06.24.08.26.08-.2-.08-.21-.09.23.22.68.35.95.53.05.04.14.13.21.14-.01,0-.37-.32-.18-.13.12.11.25.22.37.34s.22.25.34.37c.18.19-.13-.16-.13-.18,0,.07.16.23.21.3.1.15.19.31.27.47.04.08.08.16.12.24.14.24-.08-.16-.07-.18-.03.05.16.44.18.51.06.2.11.41.15.61,0,.05.02.24.05.27-.01-.01-.05-.5-.03-.22,0,.18.03.36.04.54s0,.36,0,.55c0,.09-.01.18-.02.27-.02.37-.05-.03.02-.12-.08.1-.07.41-.1.54-.04.18-.09.35-.14.53-.02.06-.21.48-.18.52-.01-.02.21-.43.07-.18-.06.11-.11.22-.16.32-.09.16-.18.31-.27.46-.01.02-.16.21-.15.22-.01-.02.31-.35.11-.15-.13.13-.24.27-.37.39-.02.02-.2.15-.2.18,0-.09.42-.26.08-.08-.07.04-.16.08-.23.13-.22.15.17-.1.2-.08-.02,0-.23.06-.25.07-.22.11.19-.02.24-.02-.2,0-.42.04-.61.05-.58.05-1.17.09-1.75.1-.29,0-.57,0-.86-.01-.46-.02.36.06.26.04-.04,0-.08-.02-.12-.03.13.05.49.32.24.1-.34-.29.37.38.12.11.35.37.47.8.52,1.3-.04-.46,0,.33-.06.31,0,0,.09-.31.09-.34.2-.66.38-1.31.39-2.01.02-1.01-.35-1.84-.73-2.74-.06-.14-.12-.27-.17-.41-.11-.25.11.26.1.24-.02-.07-.06-.15-.09-.22-.13-.32-.26-.65-.38-.98-.11-.3-.21-.6-.29-.91-.04-.15-.08-.29-.11-.44-.01-.07-.02-.15-.04-.22-.08-.28.02.52.03.25,0-.13,0-.27-.01-.4,0-.06.02-.13.01-.19,0-.05-.09.62-.04.37,0-.06.03-.12.05-.17.02-.06-.25.58-.14.34.19-.43-.32.36-.08.11.03-.03-.48.36-.26.22.18-.12-.24.1-.25.1.03.01.55-.18.55-.15,0,.04-.49.01-.19.03.09,0,.19,0,.29,0s.19.01.29.02c.32,0-.4-.12-.09,0,.17.07.38.11.56.16.3.08-.17-.06-.15-.07.02-.01.23.12.26.13.08.05.16.1.25.15.09.05.29.1.02,0-.23-.09-.1-.09,0,.01.08.08.16.15.24.23.06.06.11.13.17.18.19.17-.12-.16-.13-.18.05.14.2.29.28.42s.13.34.23.44c-.02-.02-.16-.46-.1-.21.02.11.07.21.1.32.03.1.13.64.06.23s-.01.12-.01.23c0,.07-.03.17-.01.24,0-.03.11-.51.03-.27-.03.07-.04.16-.06.24-.09.37,0-.12.08-.14-.02,0-.12.21-.14.24-.14.29.4-.41.14-.19-.08.07-.16.16-.24.23-.04.04-.1.07-.13.11-.17.2.45-.31.22-.17s-.43.29-.66.42c-.25.14-.57.24-.8.4-.01,0,.52-.2.27-.12-.07.02-.13.05-.2.08-.13.05-.27.1-.4.14-.29.09-.58.17-.87.23-.11.02-.59.09-.12.03s0,0-.11,0c-.12,0-.24,0-.36,0-.06,0-.12,0-.17,0-.33,0,.3.03.34.05-.07-.04-.22-.06-.3-.07-.35-.06.54.27.25.1-.31-.18.47.42.23.17-.05-.05.38.53.26.34-.06-.1-.14-.3.04.12.24.57,0-.31.1.33s.09-.28,0,.33c-.07.51-.02.14.02.02.14-.41.04,0-.09.18.13-.16.21-.4.33-.58.06-.09.16-.19.2-.29.01-.02-.37.44-.2.27.06-.06.11-.13.16-.19.17-.19.35-.37.53-.54.09-.09.19-.17.29-.25.39-.34-.38.25-.06.05.2-.13.4-.27.61-.38.09-.05.23-.09.31-.15.01-.01-.56.19-.35.15.07-.01.13-.05.2-.07.09-.03.2-.04.29-.08.12-.05-.69.03-.3.05.42.02-.47-.1-.33-.06.41.1-.54-.27-.26-.13,1.16.61,2.77.33,3.42-.9.61-1.16.34-2.77-.9-3.42h0Z"/>
      <path class="cls-1" d="M488.07,450.27c-3.81,1.51-8.37,3.46-13.05,5.06-1.14.39-2.67-.38-4.01-.61.34-1.32.29-2.98,1.09-3.9,4.92-5.62,10.03-11.07,14.79-17.01-3.16,2.05-6.22,4.29-9.54,6.05-1.35.71-3.25.38-4.9.52.47-1.47.67-3.11,1.47-4.36,1.23-1.94,2.88-3.62,4.59-5.7-5.54-1.61-1.85-4.55-1.12-7.23-3.13-.15-5.93-.28-10.05-.47,7.7-3.54,11.76-2.96,13.88,1.53,1.32-1.11,2.51-2.2,3.79-3.16,1.11-.84,2.33-1.54,4.47-2.93-.09,6.54-4.93,9.04-7.02,13.02l.98.88c7.17-8.36,14.34-16.73,21.51-25.09.53.1,1.06.19,1.59.29-.23,1.81-.04,3.8-.75,5.4-5.38,12.19-13.81,22.21-22.93,31.72-1.44,1.5-2.7,3.17-4.89,5.78,10.02-3.79,15.81-10.63,21.56-17.43,3.96-4.69,7.39-9.84,11.38-14.51,1.28-1.5,3.6-2.12,5.44-3.15-.06,1.95.06,3.93-.23,5.85-.18,1.21-.96,2.33-1.47,3.5.36.21.73.43,1.09.64,2.21-3.36,4.28-6.83,6.7-10.03.99-1.31,2.75-2.04,4.16-3.03.09,1.65.76,3.55.18,4.92-6.08,14.32-13.17,28-25.92,37.77-.5.38-.87.93-1.54,1.66,4.84-1.48,14.83-11.06,22.8-22.92,5.95-8.86,11-18.33,17.64-27.34,0,1.33.39,2.82-.06,3.98-8.59,22.21-21.9,40.91-41.46,54.82-5.55,3.95-11.21,7.77-17,11.36-1.31.81-3.39.39-5.11.54.53-1.53.66-3.43,1.67-4.53,4.14-4.55,8.62-8.8,12.83-13.29,1.89-2.02,3.44-4.36,5.21-6.64-2.64-.66-4.8-1.2-7.77-1.94Z"/>
      <path class="cls-1" d="M242.42,216.87c7.54-4.62,12.57-12.24,21.5-14.76-3.31,8.22-12.7,11.19-16.55,19.89,5.28-4.57,9.89-8.72,14.71-12.62,1.02-.82,2.81-.68,4.25-.98-.4,1.39-.46,3.04-1.27,4.11-2.2,2.9-4.72,5.56-7.12,8.32,5.51,3.92-.96,6.01-1.05,9.05,8.16,2.26-1.38,8.14,2.78,11.41q-4.36,0-3.64-6.62c-3.83,7.06-8.16,11.12-16.2,9.4,1.02-3.12,2.09-6.41,3.16-9.7-.25-.16-.5-.32-.75-.48-3.42,4.93-6.73,9.94-10.32,14.75-1.25,1.68-3.2,2.84-4.83,4.23-.2-2.23-.44-4.45-.57-6.68-.03-.57.32-1.17-.34-2.14-1.83,3.46-3.53,7-5.55,10.34-.98,1.62-2.58,2.87-3.89,4.29-.19-2.06-1.06-4.36-.43-6.13,1.95-5.52,4.47-10.84,6.77-16.24-.51-.23-1.02-.46-1.53-.69-5.58,12.27-11.16,24.54-16.74,36.81-.23.03-.45.06-.68.09.22-2.29.04-4.7.72-6.84,9.5-29.69,26.48-54.01,52.19-71.93,6.39-4.45,12.91-8.73,19.58-12.74,1.43-.86,3.78-.18,5.71-.21-1.1,1.56-1.85,3.85-3.35,4.58-13.8,6.68-24.37,17.17-34.28,28.47-.83.94-1.51,2.01-2.26,3.02Z"/>
    </g>
  </g>
</svg>